<?xml version="1.0" standalone="no"?>
<!DOCTYPE svg PUBLIC "-//W3C//DTD SVG 20010904//EN"
 "http://www.w3.org/TR/2001/REC-SVG-20010904/DTD/svg10.dtd">
<svg version="1.0" xmlns="http://www.w3.org/2000/svg"
 width="700.000000pt" height="700.000000pt" viewBox="0 0 700.000000 700.000000"
 preserveAspectRatio="xMidYMid meet">
<metadata>
Created by potrace 1.11, written by Peter Selinger 2001-2013
</metadata>
<g transform="translate(0.000000,700.000000) scale(0.100000,-0.100000)"
fill="#000000" stroke="none">
<path d="M704 5183 c3 -6 50 -90 105 -187 56 -97 101 -179 101 -182 0 -3 16
-30 35 -60 19 -30 35 -57 35 -59 0 -3 11 -22 23 -43 21 -32 57 -96 104 -182
15 -26 44 -78 83 -145 49 -86 354 -622 373 -655 10 -19 65 -116 122 -215 153
-269 314 -552 338 -597 12 -21 27 -47 32 -56 6 -9 28 -49 50 -87 22 -39 46
-82 55 -96 8 -15 57 -100 108 -190 51 -90 101 -177 111 -194 10 -16 33 -57 51
-90 18 -33 86 -152 150 -265 64 -113 132 -232 150 -265 18 -33 58 -102 87
-154 30 -51 74 -128 97 -170 24 -42 70 -123 103 -181 33 -58 71 -125 85 -150
14 -25 72 -126 128 -225 56 -99 139 -244 183 -322 45 -79 84 -143 87 -143 4 0
51 78 104 173 54 94 102 179 107 187 24 40 109 192 109 196 0 3 16 30 35 60
19 30 35 56 35 58 0 2 61 111 136 242 137 240 171 300 207 364 11 19 45 80 77
135 31 55 74 132 95 170 21 39 44 77 51 86 8 8 14 18 14 21 0 3 34 66 76 139
42 74 93 163 112 199 19 36 41 72 48 81 8 8 14 18 14 21 0 3 52 97 116 209 64
112 126 222 138 244 13 22 90 157 171 300 82 143 158 278 170 300 12 22 78
137 145 255 199 349 491 861 521 915 73 134 209 371 219 382 5 7 10 14 10 17
0 2 18 36 40 74 22 39 41 76 42 83 2 10 -575 12 -2795 13 -2116 1 -2796 -2
-2793 -11z"/>
</g>
</svg>
